# xmcd
#
# Track frame offsets:
#       150
#       20249
#       42482
#       60197
#       82955
#       112916
#       138600
#       164729
#       181566
#       202703
#       227570
#       244553
#       266480
#       286339
#       305786
#       322165
#
# Disc length: 4622 seconds
#
# Revision: 1
# Processed by: cddbd v1.4PL0 Copyright (c) Steve Scherf et al.
# Submitted via: MusiCat 1.1b1
#
DISCID=d9120c10
DTITLE=Diana Krall - The Look of Love
DYEAR=1900
DGENRE=
TTITLE0=S'wonderful
TTITLE1=Love letters
TTITLE2=I Remember You
TTITLE3=Cry Me a River
TTITLE4=Besame Mucho
TTITLE5=The Night We Called It a Day
TTITLE6=Dancing in the Dark
TTITLE7=I Get Along Without You
TTITLE8=The Look of Love
TTITLE9=Maybe You'll Be There
TTITLE10=Why Should I Care
TTITLE11=P.S. I Love You
TTITLE12=Dream a Little Dream of Me
TTITLE13=Let's Fall In Love
TTITLE14=I Say a Little Prayer
TTITLE15=
EXTD=0\n\n\n
EXTT0=
EXTT1=
EXTT2=
EXTT3=
EXTT4=
EXTT5=
EXTT6=
EXTT7=
EXTT8=
EXTT9=
EXTT10=
EXTT11=
EXTT12=
EXTT13=
EXTT14=
EXTT15=
PLAYORDER=
